<svg width="34" height="23" viewBox="0 0 34 23" fill="none" xmlns="http://www.w3.org/2000/svg">
<path fill-rule="evenodd" clip-rule="evenodd" d="M33.7916 11.5C33.7916 10.7233 33.0641 10.0938 32.1666 10.0938H1.83331C0.935849 10.0938 0.208313 10.7233 0.208313 11.5C0.208313 12.2767 0.935849 12.9062 1.83331 12.9062H32.1666C33.0641 12.9062 33.7916 12.2767 33.7916 11.5Z" fill="white"/>
<path fill-rule="evenodd" clip-rule="evenodd" d="M33.7916 2.125C33.7916 1.34835 33.0641 0.71875 32.1666 0.71875H1.83331C0.935849 0.71875 0.208313 1.34835 0.208313 2.125C0.208313 2.90165 0.935849 3.53125 1.83331 3.53125H32.1666C33.0641 3.53125 33.7916 2.90165 33.7916 2.125Z" fill="white"/>
<path fill-rule="evenodd" clip-rule="evenodd" d="M33.7916 20.875C33.7916 20.0983 33.0641 19.4688 32.1666 19.4688H1.83331C0.935849 19.4688 0.208313 20.0983 0.208313 20.875C0.208313 21.6517 0.935849 22.2812 1.83331 22.2812H32.1666C33.0641 22.2812 33.7916 21.6517 33.7916 20.875Z" fill="white"/>
</svg>
