<svg width="34" height="23" viewBox="0 0 34 23" fill="none" xmlns="http://www.w3.org/2000/svg">
<path fill-rule="evenodd" clip-rule="evenodd" d="M33.7917 11.5C33.7917 10.7233 33.0642 10.0938 32.1667 10.0938H1.83337C0.93591 10.0938 0.208374 10.7233 0.208374 11.5C0.208374 12.2767 0.93591 12.9062 1.83337 12.9062H32.1667C33.0642 12.9062 33.7917 12.2767 33.7917 11.5Z" fill="white"/>
<path fill-rule="evenodd" clip-rule="evenodd" d="M33.7917 2.125C33.7917 1.34835 33.0642 0.71875 32.1667 0.71875H1.83337C0.93591 0.71875 0.208374 1.34835 0.208374 2.125C0.208374 2.90165 0.93591 3.53125 1.83337 3.53125H32.1667C33.0642 3.53125 33.7917 2.90165 33.7917 2.125Z" fill="white"/>
<path fill-rule="evenodd" clip-rule="evenodd" d="M33.7917 20.875C33.7917 20.0983 33.0642 19.4688 32.1667 19.4688H1.83337C0.93591 19.4688 0.208374 20.0983 0.208374 20.875C0.208374 21.6517 0.93591 22.2812 1.83337 22.2812H32.1667C33.0642 22.2812 33.7917 21.6517 33.7917 20.875Z" fill="white"/>
</svg>
