<svg width="34" height="23" viewBox="0 0 34 23" fill="none" xmlns="http://www.w3.org/2000/svg">
<path fill-rule="evenodd" clip-rule="evenodd" d="M33.7917 11.5C33.7917 10.7233 33.0641 10.0938 32.1667 10.0938H1.83334C0.93588 10.0938 0.208344 10.7233 0.208344 11.5C0.208344 12.2767 0.93588 12.9062 1.83334 12.9062H32.1667C33.0641 12.9062 33.7917 12.2767 33.7917 11.5Z" fill="white"/>
<path fill-rule="evenodd" clip-rule="evenodd" d="M33.7917 2.125C33.7917 1.34835 33.0641 0.71875 32.1667 0.71875H1.83334C0.93588 0.71875 0.208344 1.34835 0.208344 2.125C0.208344 2.90165 0.93588 3.53125 1.83334 3.53125H32.1667C33.0641 3.53125 33.7917 2.90165 33.7917 2.125Z" fill="white"/>
<path fill-rule="evenodd" clip-rule="evenodd" d="M33.7917 20.875C33.7917 20.0983 33.0641 19.4688 32.1667 19.4688H1.83334C0.93588 19.4688 0.208344 20.0983 0.208344 20.875C0.208344 21.6517 0.93588 22.2812 1.83334 22.2812H32.1667C33.0641 22.2812 33.7917 21.6517 33.7917 20.875Z" fill="white"/>
</svg>
