<svg width="47" height="43" viewBox="0 0 47 43" fill="none" xmlns="http://www.w3.org/2000/svg">
<path fill-rule="evenodd" clip-rule="evenodd" d="M25.4583 5.37498C25.4583 4.38547 24.5815 3.58331 23.5 3.58331C22.4184 3.58331 21.5416 4.38547 21.5416 5.37498V6.71873H20.45C16.0926 6.71873 12.4861 9.81834 12.2141 13.7971L11.7813 20.1279C11.6163 22.5417 10.7306 24.8677 9.22058 26.8527C7.85624 28.6463 9.07084 31.1234 11.4422 31.3838L18.1145 32.1163V34.0416C18.1145 36.7628 20.5257 38.9687 23.5 38.9687C26.4742 38.9687 28.8854 36.7628 28.8854 34.0416V32.1163L35.5576 31.3838C37.9291 31.1234 39.1436 28.6463 37.7793 26.8527C36.2693 24.8677 35.3836 22.5417 35.2186 20.1279L34.7858 13.7971C34.5138 9.81834 30.9073 6.71873 26.5499 6.71873H25.4583V5.37498ZM20.45 9.40623C17.6437 9.40623 15.3211 11.4025 15.1459 13.9649L14.7131 20.2957C14.5145 23.2002 13.4487 25.9992 11.6317 28.3879C11.533 28.5175 11.6208 28.6966 11.7922 28.7154L19.1118 29.519C22.0268 29.839 24.9731 29.839 27.8881 29.519L35.2077 28.7154C35.3791 28.6966 35.4668 28.5175 35.3682 28.3879C33.5512 25.9992 32.4854 23.2002 32.2868 20.2957L31.854 13.9649C31.6788 11.4025 29.3562 9.40623 26.5499 9.40623H20.45ZM23.5 36.2812C22.148 36.2812 21.052 35.2785 21.052 34.0416V32.6979H25.9479V34.0416C25.9479 35.2785 24.8519 36.2812 23.5 36.2812Z" fill="white"/>
</svg>
